<?xml version="1.0" encoding="UTF-8" standalone="no"?>
<!DOCTYPE svg PUBLIC "-//W3C//DTD SVG 1.1//EN"
 "http://www.w3.org/Graphics/SVG/1.1/DTD/svg11.dtd">
<!-- Generated by graphviz version 14.1.1 (20251213.1925)
 -->
<!-- Title: InheritanceTree Pages: 1 -->
<svg width="385pt" height="285pt"
 viewBox="0.00 0.00 385.00 285.00" xmlns="http://www.w3.org/2000/svg" xmlns:xlink="http://www.w3.org/1999/xlink">
<g id="graph0" class="graph" transform="scale(1 1) rotate(0) translate(4 280.5)">
<title>InheritanceTree</title>
<polygon fill="white" stroke="none" points="-4,4 -4,-280.5 381,-280.5 381,4 -4,4"/>
<text xml:space="preserve" text-anchor="middle" x="188.5" y="-7.2" font-family="Times New Roman,serif" font-size="14.00">simple_logger &#45; Inheritance Hierarchy</text>
<!-- SIMPLE_LOGGER -->
<g id="node1" class="node">
<title>SIMPLE_LOGGER</title>
<path fill="none" stroke="black" d="M125.5,-60.5C125.5,-60.5 23.25,-60.5 23.25,-60.5 17.25,-60.5 11.25,-54.5 11.25,-48.5 11.25,-48.5 11.25,-36.5 11.25,-36.5 11.25,-30.5 17.25,-24.5 23.25,-24.5 23.25,-24.5 125.5,-24.5 125.5,-24.5 131.5,-24.5 137.5,-30.5 137.5,-36.5 137.5,-36.5 137.5,-48.5 137.5,-48.5 137.5,-54.5 131.5,-60.5 125.5,-60.5"/>
<text xml:space="preserve" text-anchor="middle" x="74.38" y="-37.45" font-family="Times New Roman,serif" font-size="14.00">SIMPLE_LOGGER</text>
</g>
<!-- ANY -->
<g id="node2" class="node">
<title>ANY</title>
<path fill="none" stroke="black" d="M331.88,-60.5C331.88,-60.5 301.88,-60.5 301.88,-60.5 295.88,-60.5 289.88,-54.5 289.88,-48.5 289.88,-48.5 289.88,-36.5 289.88,-36.5 289.88,-30.5 295.88,-24.5 301.88,-24.5 301.88,-24.5 331.88,-24.5 331.88,-24.5 337.88,-24.5 343.88,-30.5 343.88,-36.5 343.88,-36.5 343.88,-48.5 343.88,-48.5 343.88,-54.5 337.88,-60.5 331.88,-60.5"/>
<text xml:space="preserve" text-anchor="middle" x="316.88" y="-37.45" font-family="Times New Roman,serif" font-size="14.00">ANY</text>
</g>
<!-- SIMPLE_LOGGER&#45;&gt;ANY -->
<g id="edge1" class="edge">
<title>SIMPLE_LOGGER&#45;&gt;ANY</title>
<path fill="none" stroke="black" d="M137.77,-42.5C137.77,-42.5 277.98,-42.5 277.98,-42.5"/>
<polygon fill="none" stroke="black" points="277.98,-46 287.98,-42.5 277.98,-39 277.98,-46"/>
</g>
<!-- SIMPLE_LOG_TIMER -->
<g id="node3" class="node">
<title>SIMPLE_LOG_TIMER</title>
<path fill="none" stroke="black" d="M136.75,-132.5C136.75,-132.5 12,-132.5 12,-132.5 6,-132.5 0,-126.5 0,-120.5 0,-120.5 0,-108.5 0,-108.5 0,-102.5 6,-96.5 12,-96.5 12,-96.5 136.75,-96.5 136.75,-96.5 142.75,-96.5 148.75,-102.5 148.75,-108.5 148.75,-108.5 148.75,-120.5 148.75,-120.5 148.75,-126.5 142.75,-132.5 136.75,-132.5"/>
<text xml:space="preserve" text-anchor="middle" x="74.38" y="-109.45" font-family="Times New Roman,serif" font-size="14.00">SIMPLE_LOG_TIMER</text>
</g>
<!-- LIB_TESTS -->
<g id="node4" class="node">
<title>LIB_TESTS</title>
<path fill="none" stroke="black" d="M104.5,-204.5C104.5,-204.5 44.25,-204.5 44.25,-204.5 38.25,-204.5 32.25,-198.5 32.25,-192.5 32.25,-192.5 32.25,-180.5 32.25,-180.5 32.25,-174.5 38.25,-168.5 44.25,-168.5 44.25,-168.5 104.5,-168.5 104.5,-168.5 110.5,-168.5 116.5,-174.5 116.5,-180.5 116.5,-180.5 116.5,-192.5 116.5,-192.5 116.5,-198.5 110.5,-204.5 104.5,-204.5"/>
<text xml:space="preserve" text-anchor="middle" x="74.38" y="-181.45" font-family="Times New Roman,serif" font-size="14.00">LIB_TESTS</text>
</g>
<!-- TEST_SET_BASE -->
<g id="node5" class="node">
<title>TEST_SET_BASE</title>
<path fill="none" stroke="black" d="M365,-204.5C365,-204.5 268.75,-204.5 268.75,-204.5 262.75,-204.5 256.75,-198.5 256.75,-192.5 256.75,-192.5 256.75,-180.5 256.75,-180.5 256.75,-174.5 262.75,-168.5 268.75,-168.5 268.75,-168.5 365,-168.5 365,-168.5 371,-168.5 377,-174.5 377,-180.5 377,-180.5 377,-192.5 377,-192.5 377,-198.5 371,-204.5 365,-204.5"/>
<text xml:space="preserve" text-anchor="middle" x="316.88" y="-181.45" font-family="Times New Roman,serif" font-size="14.00">TEST_SET_BASE</text>
</g>
<!-- LIB_TESTS&#45;&gt;TEST_SET_BASE -->
<g id="edge2" class="edge">
<title>LIB_TESTS&#45;&gt;TEST_SET_BASE</title>
<path fill="none" stroke="black" d="M116.89,-186.5C116.89,-186.5 245.12,-186.5 245.12,-186.5"/>
<polygon fill="none" stroke="black" points="245.12,-190 255.12,-186.5 245.12,-183 245.12,-190"/>
</g>
<!-- TEST_APP -->
<g id="node6" class="node">
<title>TEST_APP</title>
<path fill="none" stroke="black" d="M102.25,-276.5C102.25,-276.5 46.5,-276.5 46.5,-276.5 40.5,-276.5 34.5,-270.5 34.5,-264.5 34.5,-264.5 34.5,-252.5 34.5,-252.5 34.5,-246.5 40.5,-240.5 46.5,-240.5 46.5,-240.5 102.25,-240.5 102.25,-240.5 108.25,-240.5 114.25,-246.5 114.25,-252.5 114.25,-252.5 114.25,-264.5 114.25,-264.5 114.25,-270.5 108.25,-276.5 102.25,-276.5"/>
<text xml:space="preserve" text-anchor="middle" x="74.38" y="-253.45" font-family="Times New Roman,serif" font-size="14.00">TEST_APP</text>
</g>
</g>
</svg>
