<?xml version="1.0" encoding="UTF-8" standalone="no"?>
<!DOCTYPE svg PUBLIC "-//W3C//DTD SVG 1.1//EN"
 "http://www.w3.org/Graphics/SVG/1.1/DTD/svg11.dtd">
<!-- Generated by graphviz version 14.1.1 (20251213.1925)
 -->
<!-- Title: ContractCoverage Pages: 1 -->
<svg width="816pt" height="721pt"
 viewBox="48.00 48.00 768.00 673.00" xmlns="http://www.w3.org/2000/svg" xmlns:xlink="http://www.w3.org/1999/xlink">
<g id="graph0" class="graph" transform="scale(0.787315 0.787315) rotate(0) translate(64.97 850.59)">
<title>ContractCoverage</title>
<polygon fill="white" stroke="none" points="-4,4 -4,-789.62 910.5,-789.62 910.5,4 -4,4"/>
<text xml:space="preserve" text-anchor="middle" x="453.25" y="-772.12" font-family="Times New Roman,serif" font-size="10.00">simple_logger &#45; Contract Coverage</text>
<g id="clust1" class="cluster">
<title>cluster_SIMPLE_LOGGER</title>
<polygon fill="white" stroke="black" points="510.25,0 510.25,-414.5 906.5,-414.5 906.5,0 510.25,0"/>
<text xml:space="preserve" text-anchor="middle" x="708.38" y="-397.2" font-family="Times New Roman,serif" font-size="14.00">SIMPLE_LOGGER</text>
</g>
<g id="clust2" class="cluster">
<title>cluster_SIMPLE_LOG_TIMER</title>
<polygon fill="white" stroke="black" points="510.25,-476 510.25,-728.5 744.5,-728.5 744.5,-476 510.25,-476"/>
<text xml:space="preserve" text-anchor="middle" x="627.38" y="-711.2" font-family="Times New Roman,serif" font-size="14.00">SIMPLE_LOG_TIMER</text>
</g>
<g id="clust3" class="cluster">
<title>cluster_LIB_TESTS</title>
<polygon fill="white" stroke="black" points="0,-68.5 0,-500 450.75,-500 450.75,-68.5 0,-68.5"/>
<text xml:space="preserve" text-anchor="middle" x="225.38" y="-482.7" font-family="Times New Roman,serif" font-size="14.00">LIB_TESTS</text>
</g>
<g id="clust4" class="cluster">
<title>cluster_TEST_APP</title>
<polygon fill="white" stroke="black" points="33.87,-578.5 33.87,-724 172.88,-724 172.88,-578.5 33.87,-578.5"/>
<text xml:space="preserve" text-anchor="middle" x="103.38" y="-706.7" font-family="Times New Roman,serif" font-size="14.00">TEST_APP</text>
</g>
<g id="clust5" class="cluster">
<title>cluster_legend</title>
<polygon fill="lightyellow" stroke="black" points="238,-578.12 238,-766.38 450.75,-766.38 450.75,-578.12 238,-578.12"/>
<text xml:space="preserve" text-anchor="middle" x="344.38" y="-752.88" font-family="Times New Roman,serif" font-size="10.00">Legend</text>
</g>
<!-- SIMPLE_LOGGER_default_create -->
<g id="node1" class="node">
<title>SIMPLE_LOGGER_default_create</title>
<polygon fill="lightcoral" stroke="black" points="865.38,-96 791.62,-96 791.62,-60 865.38,-60 865.38,-96"/>
<text xml:space="preserve" text-anchor="middle" x="828.5" y="-74.12" font-family="Times New Roman,serif" font-size="10.00">default_create</text>
</g>
<!-- SIMPLE_LOGGER_make -->
<g id="node2" class="node">
<title>SIMPLE_LOGGER_make</title>
<polygon fill="khaki" stroke="black" points="672.5,-78 618.5,-78 618.5,-42 672.5,-42 672.5,-78"/>
<text xml:space="preserve" text-anchor="middle" x="645.5" y="-56.12" font-family="Times New Roman,serif" font-size="10.00">make</text>
</g>
<!-- SIMPLE_LOGGER_make_with_level -->
<g id="node3" class="node">
<title>SIMPLE_LOGGER_make_with_level</title>
<polygon fill="palegreen" stroke="black" points="831.12,-156 743.88,-156 743.88,-120 831.12,-120 831.12,-156"/>
<text xml:space="preserve" text-anchor="middle" x="787.5" y="-134.12" font-family="Times New Roman,serif" font-size="10.00">make_with_level</text>
</g>
<!-- SIMPLE_LOGGER_make_to_file -->
<g id="node4" class="node">
<title>SIMPLE_LOGGER_make_to_file</title>
<polygon fill="palegreen" stroke="black" points="604.5,-228 534.5,-228 534.5,-192 604.5,-192 604.5,-228"/>
<text xml:space="preserve" text-anchor="middle" x="569.5" y="-206.12" font-family="Times New Roman,serif" font-size="10.00">make_to_file</text>
</g>
<!-- SIMPLE_LOGGER_make_child -->
<g id="node5" class="node">
<title>SIMPLE_LOGGER_make_child</title>
<polygon fill="lightgray" stroke="black" points="898.5,-378 834.5,-378 834.5,-342 898.5,-342 898.5,-378"/>
<text xml:space="preserve" text-anchor="middle" x="866.5" y="-356.12" font-family="Times New Roman,serif" font-size="10.00">make_child</text>
</g>
<!-- SIMPLE_LOGGER_l_child_map -->
<g id="node6" class="node">
<title>SIMPLE_LOGGER_l_child_map</title>
<polygon fill="khaki" stroke="black" points="751.38,-348 683.62,-348 683.62,-312 751.38,-312 751.38,-348"/>
<text xml:space="preserve" text-anchor="middle" x="717.5" y="-326.13" font-family="Times New Roman,serif" font-size="10.00">l_child_map</text>
</g>
<!-- SIMPLE_LOGGER_Level_debug -->
<g id="node7" class="node">
<title>SIMPLE_LOGGER_Level_debug</title>
<polygon fill="lightgray" stroke="black" points="664.5,-348 594.5,-348 594.5,-312 664.5,-312 664.5,-348"/>
<text xml:space="preserve" text-anchor="middle" x="629.5" y="-326.13" font-family="Times New Roman,serif" font-size="10.00">Level_debug</text>
</g>
<!-- SIMPLE_LOGGER_Level_info -->
<g id="node8" class="node">
<title>SIMPLE_LOGGER_Level_info</title>
<polygon fill="lightgray" stroke="black" points="889,-216 828,-216 828,-180 889,-180 889,-216"/>
<text xml:space="preserve" text-anchor="middle" x="858.5" y="-194.12" font-family="Times New Roman,serif" font-size="10.00">Level_info</text>
</g>
<!-- SIMPLE_LOGGER_Level_warn -->
<g id="node9" class="node">
<title>SIMPLE_LOGGER_Level_warn</title>
<polygon fill="lightgray" stroke="black" points="598.88,-78 534.12,-78 534.12,-42 598.88,-42 598.88,-78"/>
<text xml:space="preserve" text-anchor="middle" x="566.5" y="-56.12" font-family="Times New Roman,serif" font-size="10.00">Level_warn</text>
</g>
<!-- SIMPLE_LOGGER_Level_error -->
<g id="node10" class="node">
<title>SIMPLE_LOGGER_Level_error</title>
<polygon fill="lightgray" stroke="black" points="591.12,-288 527.88,-288 527.88,-252 591.12,-252 591.12,-288"/>
<text xml:space="preserve" text-anchor="middle" x="559.5" y="-266.12" font-family="Times New Roman,serif" font-size="10.00">Level_error</text>
</g>
<!-- SIMPLE_LOGGER_Level_fatal -->
<g id="node11" class="node">
<title>SIMPLE_LOGGER_Level_fatal</title>
<polygon fill="lightgray" stroke="black" points="572.75,-390 510.25,-390 510.25,-354 572.75,-354 572.75,-390"/>
<text xml:space="preserve" text-anchor="middle" x="541.5" y="-368.12" font-family="Times New Roman,serif" font-size="10.00">Level_fatal</text>
</g>
<!-- SIMPLE_LOGGER_level -->
<g id="node12" class="node">
<title>SIMPLE_LOGGER_level</title>
<polygon fill="lightgray" stroke="black" points="906.5,-156 852.5,-156 852.5,-120 906.5,-120 906.5,-156"/>
<text xml:space="preserve" text-anchor="middle" x="879.5" y="-134.12" font-family="Times New Roman,serif" font-size="10.00">level</text>
</g>
<!-- SIMPLE_LOGGER_is_console_output -->
<g id="node13" class="node">
<title>SIMPLE_LOGGER_is_console_output</title>
<polygon fill="lightgray" stroke="black" points="805.38,-258 713.62,-258 713.62,-222 805.38,-222 805.38,-258"/>
<text xml:space="preserve" text-anchor="middle" x="759.5" y="-236.12" font-family="Times New Roman,serif" font-size="10.00">is_console_output</text>
</g>
<!-- SIMPLE_LOGGER_is_file_output -->
<g id="node14" class="node">
<title>SIMPLE_LOGGER_is_file_output</title>
<polygon fill="lightgray" stroke="black" points="847.37,-318 773.62,-318 773.62,-282 847.37,-282 847.37,-318"/>
<text xml:space="preserve" text-anchor="middle" x="810.5" y="-296.12" font-family="Times New Roman,serif" font-size="10.00">is_file_output</text>
</g>
<!-- SIMPLE_LOGGER_is_json_output -->
<g id="node15" class="node">
<title>SIMPLE_LOGGER_is_json_output</title>
<polygon fill="lightgray" stroke="black" points="689.25,-288 611.75,-288 611.75,-252 689.25,-252 689.25,-288"/>
<text xml:space="preserve" text-anchor="middle" x="650.5" y="-266.12" font-family="Times New Roman,serif" font-size="10.00">is_json_output</text>
</g>
<!-- SIMPLE_LOGGER_file_path -->
<g id="node16" class="node">
<title>SIMPLE_LOGGER_file_path</title>
<polygon fill="lightgray" stroke="black" points="750.5,-36 696.5,-36 696.5,0 750.5,0 750.5,-36"/>
<text xml:space="preserve" text-anchor="middle" x="723.5" y="-14.12" font-family="Times New Roman,serif" font-size="10.00">file_path</text>
</g>
<!-- SIMPLE_LOGGER_context_fields -->
<g id="node17" class="node">
<title>SIMPLE_LOGGER_context_fields</title>
<polygon fill="lightgray" stroke="black" points="770.75,-96 696.25,-96 696.25,-60 770.75,-60 770.75,-96"/>
<text xml:space="preserve" text-anchor="middle" x="733.5" y="-74.12" font-family="Times New Roman,serif" font-size="10.00">context_fields</text>
</g>
<!-- SIMPLE_LOGGER_model_context -->
<g id="node18" class="node">
<title>SIMPLE_LOGGER_model_context</title>
<polygon fill="lightgray" stroke="black" points="671.25,-138 593.75,-138 593.75,-102 671.25,-102 671.25,-138"/>
<text xml:space="preserve" text-anchor="middle" x="632.5" y="-116.12" font-family="Times New Roman,serif" font-size="10.00">model_context</text>
</g>
<!-- SIMPLE_LOGGER_l_result -->
<g id="node19" class="node">
<title>SIMPLE_LOGGER_l_result</title>
<polygon fill="khaki" stroke="black" points="570.5,-168 516.5,-168 516.5,-132 570.5,-132 570.5,-168"/>
<text xml:space="preserve" text-anchor="middle" x="543.5" y="-146.12" font-family="Times New Roman,serif" font-size="10.00">l_result</text>
</g>
<!-- SIMPLE_LOGGER_old_model_context -->
<g id="node20" class="node">
<title>SIMPLE_LOGGER_old_model_context</title>
<polygon fill="lightgray" stroke="black" points="720.62,-198 624.38,-198 624.38,-162 720.62,-162 720.62,-198"/>
<text xml:space="preserve" text-anchor="middle" x="672.5" y="-176.12" font-family="Times New Roman,serif" font-size="10.00">old_model_context</text>
</g>
<!-- SIMPLE_LOG_TIMER_make -->
<g id="node21" class="node">
<title>SIMPLE_LOG_TIMER_make</title>
<polygon fill="khaki" stroke="black" points="666.5,-704 612.5,-704 612.5,-668 666.5,-668 666.5,-704"/>
<text xml:space="preserve" text-anchor="middle" x="639.5" y="-682.12" font-family="Times New Roman,serif" font-size="10.00">make</text>
</g>
<!-- SIMPLE_LOG_TIMER_start_time -->
<g id="node22" class="node">
<title>SIMPLE_LOG_TIMER_start_time</title>
<polygon fill="lightgray" stroke="black" points="566.75,-512 510.25,-512 510.25,-476 566.75,-476 566.75,-512"/>
<text xml:space="preserve" text-anchor="middle" x="538.5" y="-490.13" font-family="Times New Roman,serif" font-size="10.00">start_time</text>
</g>
<!-- SIMPLE_LOG_TIMER_elapsed_ms -->
<g id="node23" class="node">
<title>SIMPLE_LOG_TIMER_elapsed_ms</title>
<polygon fill="lightgray" stroke="black" points="609.12,-644 545.88,-644 545.88,-608 609.12,-608 609.12,-644"/>
<text xml:space="preserve" text-anchor="middle" x="577.5" y="-622.12" font-family="Times New Roman,serif" font-size="10.00">elapsed_ms</text>
</g>
<!-- SIMPLE_LOG_TIMER_l_now -->
<g id="node24" class="node">
<title>SIMPLE_LOG_TIMER_l_now</title>
<polygon fill="khaki" stroke="black" points="714.5,-530 660.5,-530 660.5,-494 714.5,-494 714.5,-530"/>
<text xml:space="preserve" text-anchor="middle" x="687.5" y="-508.12" font-family="Times New Roman,serif" font-size="10.00">l_now</text>
</g>
<!-- SIMPLE_LOG_TIMER_elapsed_seconds -->
<g id="node25" class="node">
<title>SIMPLE_LOG_TIMER_elapsed_seconds</title>
<polygon fill="khaki" stroke="black" points="714.62,-632 630.38,-632 630.38,-596 714.62,-596 714.62,-632"/>
<text xml:space="preserve" text-anchor="middle" x="672.5" y="-610.12" font-family="Times New Roman,serif" font-size="10.00">elapsed_seconds</text>
</g>
<!-- SIMPLE_LOG_TIMER_elapsed_formatted -->
<g id="node26" class="node">
<title>SIMPLE_LOG_TIMER_elapsed_formatted</title>
<polygon fill="khaki" stroke="black" points="637,-572 546,-572 546,-536 637,-536 637,-572"/>
<text xml:space="preserve" text-anchor="middle" x="591.5" y="-550.12" font-family="Times New Roman,serif" font-size="10.00">elapsed_formatted</text>
</g>
<!-- SIMPLE_LOG_TIMER_reset -->
<g id="node27" class="node">
<title>SIMPLE_LOG_TIMER_reset</title>
<polygon fill="khaki" stroke="black" points="744.5,-692 690.5,-692 690.5,-656 744.5,-656 744.5,-692"/>
<text xml:space="preserve" text-anchor="middle" x="717.5" y="-670.12" font-family="Times New Roman,serif" font-size="10.00">reset</text>
</g>
<!-- LIB_TESTS_test_make_default -->
<g id="node28" class="node">
<title>LIB_TESTS_test_make_default</title>
<polygon fill="lightcoral" stroke="black" points="203.12,-440.5 112.12,-440.5 112.12,-404.5 203.12,-404.5 203.12,-440.5"/>
<text xml:space="preserve" text-anchor="middle" x="157.62" y="-418.62" font-family="Times New Roman,serif" font-size="10.00">test_make_default</text>
</g>
<!-- LIB_TESTS_test_make_with_level -->
<g id="node29" class="node">
<title>LIB_TESTS_test_make_with_level</title>
<polygon fill="lightcoral" stroke="black" points="198,-328.5 91.25,-328.5 91.25,-292.5 198,-292.5 198,-328.5"/>
<text xml:space="preserve" text-anchor="middle" x="144.63" y="-306.62" font-family="Times New Roman,serif" font-size="10.00">test_make_with_level</text>
</g>
<!-- LIB_TESTS_test_set_level -->
<g id="node30" class="node">
<title>LIB_TESTS_test_set_level</title>
<polygon fill="lightcoral" stroke="black" points="450.75,-104.5 378.5,-104.5 378.5,-68.5 450.75,-68.5 450.75,-104.5"/>
<text xml:space="preserve" text-anchor="middle" x="414.62" y="-82.62" font-family="Times New Roman,serif" font-size="10.00">test_set_level</text>
</g>
<!-- LIB_TESTS_test_set_json_output -->
<g id="node31" class="node">
<title>LIB_TESTS_test_set_json_output</title>
<polygon fill="lightcoral" stroke="black" points="416.38,-160.5 314.88,-160.5 314.88,-124.5 416.38,-124.5 416.38,-160.5"/>
<text xml:space="preserve" text-anchor="middle" x="365.62" y="-138.62" font-family="Times New Roman,serif" font-size="10.00">test_set_json_output</text>
</g>
<!-- LIB_TESTS_test_info_log -->
<g id="node32" class="node">
<title>LIB_TESTS_test_info_log</title>
<polygon fill="lightcoral" stroke="black" points="449,-328.5 378.25,-328.5 378.25,-292.5 449,-292.5 449,-328.5"/>
<text xml:space="preserve" text-anchor="middle" x="413.62" y="-306.62" font-family="Times New Roman,serif" font-size="10.00">test_info_log</text>
</g>
<!-- LIB_TESTS_test_debug_log_filtered -->
<g id="node33" class="node">
<title>LIB_TESTS_test_debug_log_filtered</title>
<polygon fill="lightcoral" stroke="black" points="394.75,-384.5 280.5,-384.5 280.5,-348.5 394.75,-348.5 394.75,-384.5"/>
<text xml:space="preserve" text-anchor="middle" x="337.62" y="-362.63" font-family="Times New Roman,serif" font-size="10.00">test_debug_log_filtered</text>
</g>
<!-- LIB_TESTS_test_debug_log_shown -->
<g id="node34" class="node">
<title>LIB_TESTS_test_debug_log_shown</title>
<polygon fill="lightcoral" stroke="black" points="259.62,-384.5 147.63,-384.5 147.63,-348.5 259.62,-348.5 259.62,-384.5"/>
<text xml:space="preserve" text-anchor="middle" x="203.63" y="-362.63" font-family="Times New Roman,serif" font-size="10.00">test_debug_log_shown</text>
</g>
<!-- LIB_TESTS_test_all_levels -->
<g id="node35" class="node">
<title>LIB_TESTS_test_all_levels</title>
<polygon fill="lightcoral" stroke="black" points="75.25,-328.5 0,-328.5 0,-292.5 75.25,-292.5 75.25,-328.5"/>
<text xml:space="preserve" text-anchor="middle" x="37.62" y="-306.62" font-family="Times New Roman,serif" font-size="10.00">test_all_levels</text>
</g>
<!-- LIB_TESTS_test_info_with_fields -->
<g id="node36" class="node">
<title>LIB_TESTS_test_info_with_fields</title>
<polygon fill="lightcoral" stroke="black" points="439.5,-216.5 335.75,-216.5 335.75,-180.5 439.5,-180.5 439.5,-216.5"/>
<text xml:space="preserve" text-anchor="middle" x="387.62" y="-194.62" font-family="Times New Roman,serif" font-size="10.00">test_info_with_fields</text>
</g>
<!-- LIB_TESTS_test_info_fields_convenience -->
<g id="node37" class="node">
<title>LIB_TESTS_test_info_fields_convenience</title>
<polygon fill="lightcoral" stroke="black" points="256,-272.5 119.25,-272.5 119.25,-236.5 256,-236.5 256,-272.5"/>
<text xml:space="preserve" text-anchor="middle" x="187.63" y="-250.62" font-family="Times New Roman,serif" font-size="10.00">test_info_fields_convenience</text>
</g>
<!-- LIB_TESTS_test_json_output_format -->
<g id="node38" class="node">
<title>LIB_TESTS_test_json_output_format</title>
<polygon fill="lightcoral" stroke="black" points="389.87,-272.5 273.37,-272.5 273.37,-236.5 389.87,-236.5 389.87,-272.5"/>
<text xml:space="preserve" text-anchor="middle" x="331.62" y="-250.62" font-family="Times New Roman,serif" font-size="10.00">test_json_output_format</text>
</g>
<!-- LIB_TESTS_test_json_with_fields -->
<g id="node39" class="node">
<title>LIB_TESTS_test_json_with_fields</title>
<polygon fill="lightcoral" stroke="black" points="167.88,-216.5 63.38,-216.5 63.38,-180.5 167.88,-180.5 167.88,-216.5"/>
<text xml:space="preserve" text-anchor="middle" x="115.63" y="-194.62" font-family="Times New Roman,serif" font-size="10.00">test_json_with_fields</text>
</g>
<!-- LIB_TESTS_test_child_logger -->
<g id="node40" class="node">
<title>LIB_TESTS_test_child_logger</title>
<polygon fill="lightcoral" stroke="black" points="130.63,-384.5 42.63,-384.5 42.63,-348.5 130.63,-348.5 130.63,-384.5"/>
<text xml:space="preserve" text-anchor="middle" x="86.63" y="-362.63" font-family="Times New Roman,serif" font-size="10.00">test_child_logger</text>
</g>
<!-- LIB_TESTS_test_child_with_convenience -->
<g id="node41" class="node">
<title>LIB_TESTS_test_child_with_convenience</title>
<polygon fill="lightcoral" stroke="black" points="361.38,-328.5 223.88,-328.5 223.88,-292.5 361.38,-292.5 361.38,-328.5"/>
<text xml:space="preserve" text-anchor="middle" x="292.62" y="-306.62" font-family="Times New Roman,serif" font-size="10.00">test_child_with_convenience</text>
</g>
<!-- LIB_TESTS_test_context_propagation -->
<g id="node42" class="node">
<title>LIB_TESTS_test_context_propagation</title>
<polygon fill="lightcoral" stroke="black" points="310.12,-216.5 189.12,-216.5 189.12,-180.5 310.12,-180.5 310.12,-216.5"/>
<text xml:space="preserve" text-anchor="middle" x="249.62" y="-194.62" font-family="Times New Roman,serif" font-size="10.00">test_context_propagation</text>
</g>
<!-- LIB_TESTS_test_enter_exit -->
<g id="node43" class="node">
<title>LIB_TESTS_test_enter_exit</title>
<polygon fill="lightcoral" stroke="black" points="364,-104.5 287.25,-104.5 287.25,-68.5 364,-68.5 364,-104.5"/>
<text xml:space="preserve" text-anchor="middle" x="325.62" y="-82.62" font-family="Times New Roman,serif" font-size="10.00">test_enter_exit</text>
</g>
<!-- LIB_TESTS_test_timer_creation -->
<g id="node44" class="node">
<title>LIB_TESTS_test_timer_creation</title>
<polygon fill="lightcoral" stroke="black" points="431,-440.5 336.25,-440.5 336.25,-404.5 431,-404.5 431,-440.5"/>
<text xml:space="preserve" text-anchor="middle" x="383.62" y="-418.62" font-family="Times New Roman,serif" font-size="10.00">test_timer_creation</text>
</g>
<!-- LIB_TESTS_test_timer_elapsed -->
<g id="node45" class="node">
<title>LIB_TESTS_test_timer_elapsed</title>
<polygon fill="lightcoral" stroke="black" points="316.87,-440.5 224.37,-440.5 224.37,-404.5 316.87,-404.5 316.87,-440.5"/>
<text xml:space="preserve" text-anchor="middle" x="270.62" y="-418.62" font-family="Times New Roman,serif" font-size="10.00">test_timer_elapsed</text>
</g>
<!-- LIB_TESTS_test_log_duration -->
<g id="node46" class="node">
<title>LIB_TESTS_test_log_duration</title>
<polygon fill="lightcoral" stroke="black" points="103,-272.5 14.25,-272.5 14.25,-236.5 103,-236.5 103,-272.5"/>
<text xml:space="preserve" text-anchor="middle" x="58.62" y="-250.62" font-family="Times New Roman,serif" font-size="10.00">test_log_duration</text>
</g>
<!-- LIB_TESTS_test_timer_formatted -->
<g id="node47" class="node">
<title>LIB_TESTS_test_timer_formatted</title>
<polygon fill="lightcoral" stroke="black" points="290,-160.5 189.25,-160.5 189.25,-124.5 290,-124.5 290,-160.5"/>
<text xml:space="preserve" text-anchor="middle" x="239.63" y="-138.62" font-family="Times New Roman,serif" font-size="10.00">test_timer_formatted</text>
</g>
<!-- LIB_TESTS_test_file_output -->
<g id="node48" class="node">
<title>LIB_TESTS_test_file_output</title>
<polygon fill="lightcoral" stroke="black" points="270.25,-104.5 189,-104.5 189,-68.5 270.25,-68.5 270.25,-104.5"/>
<text xml:space="preserve" text-anchor="middle" x="229.62" y="-82.62" font-family="Times New Roman,serif" font-size="10.00">test_file_output</text>
</g>
<!-- LIB_TESTS_test_add_file_output -->
<g id="node49" class="node">
<title>LIB_TESTS_test_add_file_output</title>
<polygon fill="lightcoral" stroke="black" points="157.38,-160.5 55.88,-160.5 55.88,-124.5 157.38,-124.5 157.38,-160.5"/>
<text xml:space="preserve" text-anchor="middle" x="106.63" y="-138.62" font-family="Times New Roman,serif" font-size="10.00">test_add_file_output</text>
</g>
<!-- LIB_TESTS_delete_test_file -->
<g id="node50" class="node">
<title>LIB_TESTS_delete_test_file</title>
<polygon fill="lightcoral" stroke="black" points="86.12,-475.5 7.12,-475.5 7.12,-439.5 86.12,-439.5 86.12,-475.5"/>
<text xml:space="preserve" text-anchor="middle" x="46.62" y="-453.62" font-family="Times New Roman,serif" font-size="10.00">delete_test_file</text>
</g>
<!-- TEST_APP_make -->
<g id="node51" class="node">
<title>TEST_APP_make</title>
<polygon fill="lightcoral" stroke="black" points="172.88,-614.5 118.88,-614.5 118.88,-578.5 172.88,-578.5 172.88,-614.5"/>
<text xml:space="preserve" text-anchor="middle" x="145.88" y="-592.63" font-family="Times New Roman,serif" font-size="10.00">make</text>
</g>
<!-- TEST_APP_passed -->
<g id="node52" class="node">
<title>TEST_APP_passed</title>
<polygon fill="lightgray" stroke="black" points="97.87,-639.5 43.87,-639.5 43.87,-603.5 97.87,-603.5 97.87,-639.5"/>
<text xml:space="preserve" text-anchor="middle" x="70.87" y="-617.62" font-family="Times New Roman,serif" font-size="10.00">passed</text>
</g>
<!-- TEST_APP_failed -->
<g id="node53" class="node">
<title>TEST_APP_failed</title>
<polygon fill="lightgray" stroke="black" points="162.88,-694.5 108.88,-694.5 108.88,-658.5 162.88,-658.5 162.88,-694.5"/>
<text xml:space="preserve" text-anchor="middle" x="135.88" y="-672.62" font-family="Times New Roman,serif" font-size="10.00">failed</text>
</g>
<!-- TEST_APP_run_test -->
<g id="node54" class="node">
<title>TEST_APP_run_test</title>
<polygon fill="lightcoral" stroke="black" points="87.88,-699.5 33.87,-699.5 33.87,-663.5 87.88,-663.5 87.88,-699.5"/>
<text xml:space="preserve" text-anchor="middle" x="60.87" y="-677.62" font-family="Times New Roman,serif" font-size="10.00">run_test</text>
</g>
<!-- legend_full -->
<g id="node55" class="node">
<title>legend_full</title>
<polygon fill="palegreen" stroke="black" points="440.25,-683.12 326,-683.12 326,-642.12 440.25,-642.12 440.25,-683.12"/>
<text xml:space="preserve" text-anchor="middle" x="383.12" y="-665.83" font-family="Times New Roman,serif" font-size="14.00">Full Contract</text>
<text xml:space="preserve" text-anchor="middle" x="383.12" y="-649.33" font-family="Times New Roman,serif" font-size="14.00">(require + ensure)</text>
</g>
<!-- legend_partial -->
<g id="node56" class="node">
<title>legend_partial</title>
<polygon fill="khaki" stroke="black" points="450.75,-619.12 333.5,-619.12 333.5,-578.12 450.75,-578.12 450.75,-619.12"/>
<text xml:space="preserve" text-anchor="middle" x="392.12" y="-601.83" font-family="Times New Roman,serif" font-size="14.00">Partial Contract</text>
<text xml:space="preserve" text-anchor="middle" x="392.12" y="-585.33" font-family="Times New Roman,serif" font-size="14.00">(require or ensure)</text>
</g>
<!-- legend_none -->
<g id="node57" class="node">
<title>legend_none</title>
<polygon fill="lightcoral" stroke="black" points="432.5,-741.63 349.75,-741.63 349.75,-705.63 432.5,-705.63 432.5,-741.63"/>
<text xml:space="preserve" text-anchor="middle" x="391.12" y="-718.58" font-family="Times New Roman,serif" font-size="14.00">No Contract</text>
</g>
<!-- legend_attr -->
<g id="node58" class="node">
<title>legend_attr</title>
<polygon fill="lightgray" stroke="black" points="326.5,-747.12 261.75,-747.12 261.75,-706.12 326.5,-706.12 326.5,-747.12"/>
<text xml:space="preserve" text-anchor="middle" x="294.12" y="-729.83" font-family="Times New Roman,serif" font-size="14.00">Attribute</text>
<text xml:space="preserve" text-anchor="middle" x="294.12" y="-713.33" font-family="Times New Roman,serif" font-size="14.00">(n/a)</text>
</g>
<!-- legend_stats -->
<g id="node59" class="node">
<title>legend_stats</title>
<polygon fill="white" stroke="black" points="298.25,-685.12 238,-685.12 238,-578.12 304.25,-578.12 304.25,-679.12 298.25,-685.12"/>
<polyline fill="none" stroke="black" points="298.25,-685.12 298.25,-679.12"/>
<polyline fill="none" stroke="black" points="304.25,-679.12 298.25,-679.12"/>
<text xml:space="preserve" text-anchor="middle" x="271.12" y="-667.83" font-family="Times New Roman,serif" font-size="14.00">Statistics</text>
<text xml:space="preserve" text-anchor="middle" x="271.12" y="-651.33" font-family="Times New Roman,serif" font-size="14.00">Full: 2</text>
<text xml:space="preserve" text-anchor="middle" x="271.12" y="-634.83" font-family="Times New Roman,serif" font-size="14.00">Partial: 8</text>
<text xml:space="preserve" text-anchor="middle" x="271.12" y="-618.33" font-family="Times New Roman,serif" font-size="14.00">None: 26</text>
<text xml:space="preserve" text-anchor="middle" x="271.12" y="-601.83" font-family="Times New Roman,serif" font-size="14.00">Attr: 18</text>
<text xml:space="preserve" text-anchor="middle" x="271.12" y="-585.33" font-family="Times New Roman,serif" font-size="14.00">Total: 54</text>
</g>
</g>
</svg>
