<?xml version="1.0" encoding="UTF-8" standalone="no"?>
<!DOCTYPE svg PUBLIC "-//W3C//DTD SVG 1.1//EN"
 "http://www.w3.org/Graphics/SVG/1.1/DTD/svg11.dtd">
<!-- Generated by graphviz version 14.1.1 (20251213.1925)
 -->
<!-- Title: Dependencies Pages: 1 -->
<svg width="353pt" height="501pt"
 viewBox="0.00 0.00 353.00 501.00" xmlns="http://www.w3.org/2000/svg" xmlns:xlink="http://www.w3.org/1999/xlink">
<g id="graph0" class="graph" transform="scale(1 1) rotate(0) translate(4 496.5)">
<title>Dependencies</title>
<polygon fill="white" stroke="none" points="-4,4 -4,-496.5 348.75,-496.5 348.75,4 -4,4"/>
<text xml:space="preserve" text-anchor="middle" x="172.38" y="-7.2" font-family="Times New Roman,serif" font-size="14.00">simple_logger &#45; Dependencies</text>
<!-- simple_logger -->
<g id="node1" class="node">
<title>simple_logger</title>
<polygon fill="lightblue" stroke="black" points="94,-276.5 0,-276.5 0,-240.5 94,-240.5 94,-276.5"/>
<text xml:space="preserve" text-anchor="middle" x="47" y="-253.45" font-family="Times New Roman,serif" font-size="14.00">simple_logger</text>
</g>
<!-- simple_datetime -->
<g id="node2" class="node">
<title>simple_datetime</title>
<polygon fill="lightblue" stroke="black" points="344.75,-492.5 238,-492.5 238,-456.5 344.75,-456.5 344.75,-492.5"/>
<text xml:space="preserve" text-anchor="middle" x="291.38" y="-469.45" font-family="Times New Roman,serif" font-size="14.00">simple_datetime</text>
</g>
<!-- simple_logger&#45;&gt;simple_datetime -->
<g id="edge1" class="edge">
<title>simple_logger&#45;&gt;simple_datetime</title>
<path fill="none" stroke="black" stroke-dasharray="5,2" d="M23.75,-276.92C23.75,-329.15 23.75,-474.5 23.75,-474.5 23.75,-474.5 226.03,-474.5 226.03,-474.5"/>
<polygon fill="black" stroke="black" points="226.03,-478 236.03,-474.5 226.03,-471 226.03,-478"/>
</g>
<!-- simple_json -->
<g id="node3" class="node">
<title>simple_json</title>
<polygon fill="lightblue" stroke="black" points="332.38,-420.5 250.38,-420.5 250.38,-384.5 332.38,-384.5 332.38,-420.5"/>
<text xml:space="preserve" text-anchor="middle" x="291.38" y="-397.45" font-family="Times New Roman,serif" font-size="14.00">simple_json</text>
</g>
<!-- simple_logger&#45;&gt;simple_json -->
<g id="edge2" class="edge">
<title>simple_logger&#45;&gt;simple_json</title>
<path fill="none" stroke="black" stroke-dasharray="5,2" d="M46.75,-276.74C46.75,-315.49 46.75,-402.5 46.75,-402.5 46.75,-402.5 238.36,-402.5 238.36,-402.5"/>
<polygon fill="black" stroke="black" points="238.36,-406 248.36,-402.5 238.36,-399 238.36,-406"/>
</g>
<!-- simple_mml -->
<g id="node4" class="node">
<title>simple_mml</title>
<polygon fill="lightblue" stroke="black" points="334.25,-348.5 248.5,-348.5 248.5,-312.5 334.25,-312.5 334.25,-348.5"/>
<text xml:space="preserve" text-anchor="middle" x="291.38" y="-325.45" font-family="Times New Roman,serif" font-size="14.00">simple_mml</text>
</g>
<!-- simple_logger&#45;&gt;simple_mml -->
<g id="edge3" class="edge">
<title>simple_logger&#45;&gt;simple_mml</title>
<path fill="none" stroke="black" stroke-dasharray="5,2" d="M70.75,-276.67C70.75,-298 70.75,-330.5 70.75,-330.5 70.75,-330.5 236.54,-330.5 236.54,-330.5"/>
<polygon fill="black" stroke="black" points="236.54,-334 246.54,-330.5 236.54,-327 236.54,-334"/>
</g>
<!-- simple_testing -->
<g id="node5" class="node">
<title>simple_testing</title>
<polygon fill="lightblue" stroke="black" points="339.12,-276.5 243.62,-276.5 243.62,-240.5 339.12,-240.5 339.12,-276.5"/>
<text xml:space="preserve" text-anchor="middle" x="291.38" y="-253.45" font-family="Times New Roman,serif" font-size="14.00">simple_testing</text>
</g>
<!-- simple_logger&#45;&gt;simple_testing -->
<g id="edge4" class="edge">
<title>simple_logger&#45;&gt;simple_testing</title>
<path fill="none" stroke="black" stroke-dasharray="5,2" d="M94.41,-258.5C94.41,-258.5 231.75,-258.5 231.75,-258.5"/>
<polygon fill="black" stroke="black" points="231.75,-262 241.75,-258.5 231.75,-255 231.75,-262"/>
</g>
<!-- base -->
<g id="node6" class="node">
<title>base</title>
<polygon fill="lightgray" stroke="black" points="318.38,-204.5 264.38,-204.5 264.38,-168.5 318.38,-168.5 318.38,-204.5"/>
<text xml:space="preserve" text-anchor="middle" x="291.38" y="-181.45" font-family="Times New Roman,serif" font-size="14.00">base</text>
</g>
<!-- simple_logger&#45;&gt;base -->
<g id="edge5" class="edge">
<title>simple_logger&#45;&gt;base</title>
<path fill="none" stroke="black" stroke-dasharray="5,2" d="M70.75,-240.33C70.75,-219 70.75,-186.5 70.75,-186.5 70.75,-186.5 252.37,-186.5 252.37,-186.5"/>
<polygon fill="black" stroke="black" points="252.37,-190 262.37,-186.5 252.37,-183 252.37,-190"/>
</g>
<!-- logging -->
<g id="node7" class="node">
<title>logging</title>
<polygon fill="lightgray" stroke="black" points="320,-132.5 262.75,-132.5 262.75,-96.5 320,-96.5 320,-132.5"/>
<text xml:space="preserve" text-anchor="middle" x="291.38" y="-109.45" font-family="Times New Roman,serif" font-size="14.00">logging</text>
</g>
<!-- simple_logger&#45;&gt;logging -->
<g id="edge6" class="edge">
<title>simple_logger&#45;&gt;logging</title>
<path fill="none" stroke="black" stroke-dasharray="5,2" d="M46.75,-240.26C46.75,-201.51 46.75,-114.5 46.75,-114.5 46.75,-114.5 250.84,-114.5 250.84,-114.5"/>
<polygon fill="black" stroke="black" points="250.84,-118 260.84,-114.5 250.84,-111 250.84,-118"/>
</g>
<!-- testing -->
<g id="node8" class="node">
<title>testing</title>
<polygon fill="lightgray" stroke="black" points="318.38,-60.5 264.38,-60.5 264.38,-24.5 318.38,-24.5 318.38,-60.5"/>
<text xml:space="preserve" text-anchor="middle" x="291.38" y="-37.45" font-family="Times New Roman,serif" font-size="14.00">testing</text>
</g>
<!-- simple_logger&#45;&gt;testing -->
<g id="edge7" class="edge">
<title>simple_logger&#45;&gt;testing</title>
<path fill="none" stroke="black" stroke-dasharray="5,2" d="M23.75,-240.08C23.75,-187.85 23.75,-42.5 23.75,-42.5 23.75,-42.5 252.73,-42.5 252.73,-42.5"/>
<polygon fill="black" stroke="black" points="252.73,-46 262.73,-42.5 252.73,-39 252.73,-46"/>
</g>
</g>
</svg>
